<svg aria-hidden="true" style="position: absolute; width: 0; height: 0; overflow: hidden;" version="1.1" xmlns="http://www.w3.org/2000/svg" xmlns:xlink="http://www.w3.org/1999/xlink">
<defs>

<symbol id="linkedin" viewBox="0 0 32 32">
<path d="M31.992 32v-0.001h0.008v-11.736c0-5.741-1.236-10.164-7.948-10.164-3.227 0-5.392 1.771-6.276 3.449h-0.093v-2.913h-6.364v21.364h6.627v-10.579c0-2.785 0.528-5.479 3.977-5.479 3.399 0 3.449 3.179 3.449 5.657v10.401h6.62z"></path>
<path d="M0.528 10.636h6.635v21.364h-6.635v-21.364z"></path>
<path d="M3.843 0c-2.121 0-3.843 1.721-3.843 3.843s1.721 3.879 3.843 3.879c2.121 0 3.843-1.757 3.843-3.879-0.001-2.121-1.723-3.843-3.843-3.843v0z"></path>
</symbol>

<symbol id="facebook" viewBox="0 0 32 32">
<path d="M21.329 5.313h2.921v-5.088c-0.504-0.069-2.237-0.225-4.256-0.225-4.212 0-7.097 2.649-7.097 7.519v4.481h-4.648v5.688h4.648v14.312h5.699v-14.311h4.46l0.708-5.688h-5.169v-3.919c0.001-1.644 0.444-2.769 2.735-2.769z"></path>
</symbol>

<symbol id="instagram" viewBox="0 0 32 32">
<path d="M31.969 9.408c-0.075-1.7-0.35-2.869-0.744-3.882-0.406-1.075-1.031-2.038-1.85-2.838-0.8-0.813-1.769-1.444-2.832-1.844-1.019-0.394-2.182-0.669-3.882-0.744-1.713-0.081-2.257-0.1-6.601-0.1s-4.888 0.019-6.595 0.094c-1.7 0.075-2.869 0.35-3.882 0.744-1.075 0.406-2.038 1.031-2.838 1.85-0.813 0.8-1.444 1.769-1.844 2.832-0.394 1.019-0.669 2.182-0.744 3.882-0.081 1.713-0.1 2.257-0.1 6.601s0.019 4.888 0.094 6.595c0.075 1.7 0.35 2.869 0.744 3.882 0.406 1.075 1.038 2.038 1.85 2.838 0.8 0.813 1.769 1.444 2.832 1.844 1.019 0.394 2.182 0.669 3.882 0.744 1.706 0.075 2.25 0.094 6.595 0.094s4.888-0.019 6.595-0.094c1.7-0.075 2.869-0.35 3.882-0.744 2.151-0.832 3.851-2.532 4.682-4.682 0.394-1.019 0.669-2.182 0.744-3.882 0.075-1.707 0.094-2.251 0.094-6.595s-0.006-4.888-0.081-6.595zM29.087 22.473c-0.069 1.563-0.331 2.407-0.55 2.969-0.538 1.394-1.644 2.5-3.038 3.038-0.563 0.219-1.413 0.481-2.969 0.55-1.688 0.075-2.194 0.094-6.464 0.094s-4.782-0.019-6.464-0.094c-1.563-0.069-2.407-0.331-2.969-0.55-0.694-0.256-1.325-0.663-1.838-1.194-0.531-0.519-0.938-1.144-1.194-1.838-0.219-0.563-0.481-1.413-0.55-2.969-0.075-1.688-0.094-2.194-0.094-6.464s0.019-4.782 0.094-6.464c0.069-1.563 0.331-2.407 0.55-2.969 0.256-0.694 0.663-1.325 1.2-1.838 0.519-0.531 1.144-0.938 1.838-1.194 0.563-0.219 1.413-0.481 2.969-0.55 1.688-0.075 2.194-0.094 6.464-0.094 4.276 0 4.782 0.019 6.464 0.094 1.563 0.069 2.407 0.331 2.969 0.55 0.694 0.256 1.325 0.662 1.838 1.194 0.531 0.519 0.938 1.144 1.194 1.838 0.219 0.563 0.481 1.413 0.55 2.969 0.075 1.688 0.094 2.194 0.094 6.464s-0.019 4.77-0.094 6.458z"></path>
<path d="M16.059 7.783c-4.538 0-8.22 3.682-8.22 8.22s3.682 8.22 8.22 8.22c4.538 0 8.22-3.682 8.22-8.22s-3.682-8.22-8.22-8.22zM16.059 21.335c-2.944 0-5.332-2.388-5.332-5.332s2.388-5.332 5.332-5.332c2.944 0 5.332 2.388 5.332 5.332s-2.388 5.332-5.332 5.332z"></path>
<path d="M26.524 7.458c0 1.060-0.859 1.919-1.919 1.919s-1.919-0.859-1.919-1.919c0-1.060 0.859-1.919 1.919-1.919s1.919 0.859 1.919 1.919z"></path>
</symbol>

<symbol id="github" viewBox="0 0 32 32">
<path d="M16 0c-8.835 0-16 7.164-16 16 0 7.069 4.584 13.067 10.943 15.183 0.799 0.148 1.057-0.348 1.057-0.769v-2.979c-4.451 0.968-5.377-1.888-5.377-1.888-0.728-1.849-1.777-2.341-1.777-2.341-1.452-0.993 0.111-0.972 0.111-0.972 1.607 0.112 2.452 1.649 2.452 1.649 1.427 2.445 3.743 1.739 4.656 1.329 0.143-1.033 0.557-1.74 1.016-2.139-3.553-0.407-7.289-1.779-7.289-7.908 0-1.748 0.625-3.175 1.648-4.295-0.165-0.404-0.713-2.032 0.156-4.235 0 0 1.344-0.429 4.401 1.64 1.276-0.355 2.644-0.532 4.004-0.539 1.36 0.007 2.729 0.184 4.008 0.539 3.055-2.069 4.396-1.64 4.396-1.64 0.871 2.204 0.323 3.832 0.157 4.235 1.027 1.12 1.647 2.548 1.647 4.295 0 6.145-3.743 7.499-7.305 7.895 0.573 0.496 1.097 1.469 1.097 2.963v4.391c0 0.425 0.256 0.925 1.068 0.768 6.353-2.119 10.932-8.115 10.932-15.181 0-8.836-7.164-16-16-16z"></path>
</symbol>

<symbol id="phone" viewBox="0 0 32 32">
<path d="M25.29 19.823c-0.655-0.682-1.445-1.047-2.283-1.047-0.831 0-1.628 0.358-2.31 1.040l-2.134 2.127c-0.176-0.095-0.351-0.182-0.52-0.27-0.243-0.122-0.473-0.236-0.669-0.358-1.999-1.27-3.816-2.924-5.558-5.065-0.844-1.067-1.412-1.965-1.824-2.877 0.554-0.507 1.067-1.033 1.567-1.54 0.189-0.189 0.378-0.385 0.567-0.574 1.418-1.418 1.418-3.255 0-4.674l-1.844-1.844c-0.209-0.209-0.425-0.425-0.628-0.642-0.405-0.419-0.831-0.851-1.27-1.256-0.655-0.648-1.439-0.993-2.263-0.993s-1.621 0.344-2.296 0.993c-0.007 0.007-0.007 0.007-0.014 0.014l-2.296 2.317c-0.865 0.865-1.358 1.918-1.466 3.141-0.162 1.972 0.419 3.809 0.865 5.011 1.094 2.951 2.729 5.687 5.167 8.618 2.958 3.532 6.517 6.322 10.583 8.287 1.553 0.736 3.627 1.607 5.943 1.756 0.142 0.007 0.29 0.014 0.425 0.014 1.56 0 2.87-0.561 3.897-1.675 0.007-0.014 0.020-0.020 0.027-0.034 0.351-0.425 0.756-0.81 1.182-1.222 0.29-0.277 0.588-0.567 0.878-0.871 0.669-0.696 1.020-1.506 1.020-2.337 0-0.837-0.358-1.641-1.040-2.317l-3.708-3.721zM27.708 26.935c-0.007 0-0.007 0.007 0 0-0.263 0.284-0.534 0.54-0.824 0.824-0.439 0.419-0.885 0.858-1.303 1.351-0.682 0.729-1.486 1.074-2.539 1.074-0.101 0-0.209 0-0.311-0.007-2.006-0.128-3.87-0.912-5.268-1.58-3.823-1.851-7.179-4.478-9.969-7.807-2.303-2.776-3.843-5.342-4.863-8.098-0.628-1.682-0.858-2.992-0.756-4.228 0.068-0.79 0.371-1.445 0.932-2.006l2.303-2.303c0.331-0.311 0.682-0.48 1.027-0.48 0.425 0 0.77 0.257 0.986 0.473 0.007 0.007 0.013 0.013 0.020 0.020 0.412 0.385 0.804 0.783 1.216 1.209 0.209 0.216 0.425 0.432 0.642 0.655l1.844 1.844c0.716 0.716 0.716 1.378 0 2.094-0.196 0.196-0.385 0.392-0.581 0.581-0.567 0.581-1.108 1.121-1.695 1.648-0.014 0.014-0.027 0.020-0.034 0.034-0.581 0.581-0.473 1.148-0.351 1.533 0.007 0.020 0.014 0.041 0.020 0.061 0.48 1.162 1.155 2.256 2.181 3.559l0.007 0.007c1.864 2.296 3.829 4.086 5.997 5.457 0.277 0.176 0.561 0.317 0.831 0.453 0.243 0.122 0.473 0.236 0.669 0.358 0.027 0.014 0.054 0.034 0.081 0.047 0.23 0.115 0.446 0.169 0.669 0.169 0.561 0 0.912-0.351 1.027-0.466l2.31-2.31c0.23-0.23 0.594-0.507 1.020-0.507 0.419 0 0.763 0.263 0.973 0.493 0.007 0.007 0.007 0.007 0.014 0.014l3.721 3.721c0.696 0.689 0.696 1.398 0.007 2.114z"></path>
<path d="M17.294 7.612c1.77 0.297 3.377 1.135 4.66 2.418s2.114 2.891 2.418 4.66c0.074 0.446 0.459 0.756 0.898 0.756 0.054 0 0.101-0.007 0.155-0.014 0.5-0.081 0.831-0.554 0.75-1.054-0.365-2.141-1.378-4.093-2.924-5.639s-3.498-2.56-5.639-2.924c-0.5-0.081-0.966 0.25-1.054 0.743s0.236 0.973 0.736 1.054z"></path>
<path d="M31.963 14.116c-0.601-3.525-2.263-6.734-4.815-9.287s-5.761-4.214-9.287-4.815c-0.493-0.088-0.959 0.25-1.047 0.743-0.081 0.5 0.25 0.966 0.75 1.054 3.147 0.534 6.018 2.026 8.3 4.302 2.283 2.283 3.769 5.153 4.302 8.3 0.074 0.446 0.459 0.756 0.898 0.756 0.054 0 0.101-0.007 0.155-0.014 0.493-0.074 0.831-0.547 0.743-1.040z"></path>
</symbol>

<symbol id="mail" viewBox="0 0 32 32">
<path d="M28.094 3.824h-24.18c-2.159 0-3.913 1.755-3.913 3.913v16.526c0 2.159 1.755 3.913 3.913 3.913h24.174c2.159 0 3.913-1.755 3.913-3.913v-16.52c0.007-2.159-1.748-3.92-3.906-3.92zM30.219 24.263c0 1.172-0.953 2.125-2.125 2.125h-24.18c-1.172 0-2.125-0.953-2.125-2.125v-16.52c0-1.172 0.953-2.125 2.125-2.125h24.174c1.172 0 2.125 0.953 2.125 2.125v16.52h0.007z"></path>
<path d="M20.181 15.795l7.826-7.018c0.364-0.331 0.397-0.894 0.066-1.265-0.331-0.364-0.894-0.397-1.265-0.066l-10.792 9.687-2.106-1.88c-0.007-0.007-0.013-0.013-0.013-0.020-0.046-0.046-0.093-0.086-0.146-0.126l-8.568-7.667c-0.371-0.331-0.934-0.298-1.265 0.073s-0.298 0.934 0.073 1.265l7.919 7.078-7.886 7.383c-0.358 0.338-0.377 0.9-0.040 1.265 0.179 0.185 0.417 0.285 0.656 0.285 0.218 0 0.437-0.079 0.609-0.238l8.005-7.489 2.172 1.94c0.172 0.152 0.384 0.225 0.596 0.225s0.43-0.079 0.596-0.232l2.231-2 7.959 7.561c0.172 0.166 0.397 0.245 0.616 0.245 0.238 0 0.47-0.093 0.649-0.278 0.338-0.358 0.324-0.927-0.033-1.265l-7.859-7.462z"></path>
</symbol>

<symbol id="happy" viewBox="0 0 32 32">
<path d="M16 32c8.837 0 16-7.163 16-16s-7.163-16-16-16-16 7.163-16 16 7.163 16 16 16zM16 3c7.18 0 13 5.82 13 13s-5.82 13-13 13-13-5.82-13-13 5.82-13 13-13zM16 18.711c3.623 0 7.070-0.963 10-2.654-0.455 5.576-4.785 9.942-10 9.942s-9.544-4.371-10-9.947c2.93 1.691 6.377 2.658 10 2.658zM8 11c0-1.657 0.895-3 2-3s2 1.343 2 3c0 1.657-0.895 3-2 3s-2-1.343-2-3zM20 11c0-1.657 0.895-3 2-3s2 1.343 2 3c0 1.657-0.895 3-2 3s-2-1.343-2-3z"></path>
</symbol>

</defs>
</svg>
